<svg width="149" height="149" viewBox="0 0 149 149" fill="none" xmlns="http://www.w3.org/2000/svg">
<path d="M74.5 149C115.645 149 149 115.645 149 74.5C149 33.3548 115.645 0 74.5 0C33.3548 0 0 33.3548 0 74.5C0 115.645 33.3548 149 74.5 149Z" fill="#635BFF"/>
<path d="M81.8083 71.9167C81.8083 68.7083 79.1833 66.2917 75.35 66.2917C71.5167 66.2917 68.8917 68.7083 68.8917 71.9167C68.8917 76.375 75.35 74.9583 75.35 78.25C75.35 79.6667 74.0417 80.6667 71.9333 80.6667C69.7167 80.6667 68.1917 79.4583 68.1917 77.25H64.5417C64.5417 80.9583 67.4667 83.375 71.9333 83.375C76.4 83.375 79.0917 80.9583 79.0917 77.75C79.0917 73.0417 72.6333 74.4583 72.6333 71.4167C72.6333 70.2083 73.7083 69.0833 75.35 69.0833C76.9917 69.0833 78.0667 70.2083 78.0667 71.9167H81.8083ZM89.5583 71.9167C89.5583 68.7083 86.9333 66.2917 83.1 66.2917C79.2667 66.2917 76.6417 68.7083 76.6417 71.9167C76.6417 76.375 83.1 74.9583 83.1 78.25C83.1 79.6667 81.7917 80.6667 79.6833 80.6667C77.4667 80.6667 75.9417 79.4583 75.9417 77.25H72.2917C72.2917 80.9583 75.2167 83.375 79.6833 83.375C84.15 83.375 86.8417 80.9583 86.8417 77.75C86.8417 73.0417 80.3833 74.4583 80.3833 71.4167C80.3833 70.2083 81.4583 69.0833 83.1 69.0833C84.7417 69.0833 85.8167 70.2083 85.8167 71.9167H89.5583Z" fill="white"/>
</svg> 